<svg xmlns="http://www.w3.org/2000/svg" xmlns:xlink="http://www.w3.org/1999/xlink" viewBox="0 0 80 70"><ellipse cx="40" cy="35" rx="39.9" ry="35" fill="#fff"/><g fill="#0061af"><path d="M7.9 35.8h0v2.3s-.1.7-.5 1.3a1.38 1.38 0 0 1-.4.3c0-.2 0-.3-.1-.5 0-.2 0-.3-.1-.5 0-.3-.1-.7-.1-1v-.5-.5-1l1.2.1h0zm0-4.6v3.1H6.6v-.6c0-.8.1-1.6.2-2.4 0-.2 0-.3.1-.5v-.1c0-.4.1-.7.2-1.1.1.1.3.2.4.4.2.3.4.7.4 1.2z"/><use xlink:href="#C"/></g><linearGradient id="A" gradientUnits="userSpaceOnUse" x1="73.08" y1="36.887" x2="73.08" y2="35.79"><stop offset=".098" stop-color="#00aeef"/><stop offset=".515" stop-color="#0061af"/><stop offset="1" stop-color="#00aeef"/></linearGradient><path d="M73.4 35.8v.7.4c-.2-.3-.3-.6-.4-.8h0c0-.1-.1-.1-.1-.2v-.1h.5 0z" fill="url(#A)"/><path d="M73.4 34.3h-1.2l-2.1-4.7c-.4-.8 1.2-.8 1.2-.8h1.6c0 .2.1.3.1.5 0 .1 0 .3.1.4 0 .1 0 .2.1.4v.2c0 .1 0 .3.1.4 0 .1 0 .3.1.4 0 .2 0 .4.1.6v.5.3c-.2.6-.2 1.2-.1 1.8z" fill="#0061af"/><g fill="#0054a6"><path d="M7.9 31.2v3.1H1.2c0-1.9.3-3.7.6-5.5h3c.7 0 1.5.2 2.1.6.1 0 .1.1.2.1h0c.1.1.3.2.4.4.2.4.4.8.4 1.3zm70.9 4.6c0 1.4-.2 2.7-.4 4.1h-1.8s-1.5.2-2.1-.8c-.3-.5-.8-1.4-1.1-2.2h0c-.2-.3-.3-.6-.4-.8h0c0-.1-.1-.1-.1-.2v-.1h5.9 0z"/><use xlink:href="#C"/><path d="M40.3 57.8c8.8 0 16.5 2.1 21.4 5.4C55.5 66.9 48 69 40 69c-7.9 0-15.3-2.1-21.4-5.7 4.9-3.3 12.8-5.5 21.7-5.5zm30.1-1.6c-2.1 2.3-4.5 4.4-7.2 6.1-5.2-3.5-13.5-5.8-23-5.8-9.6 0-18.1 2.4-23.2 6-2.6-1.7-4.9-3.6-6.9-5.8 7.7-4.1 18.6-6.7 30.7-6.7 11.5 0 22 2.3 29.6 6.2zm7.4-13.5c-1.2 4.6-3.5 8.8-6.5 12.5-8-3.9-19-6.3-31-6.3-12.3 0-23.3 2.5-31.4 6.4-4.7-5.5-7.5-12.2-7.7-19.5h6.6v.1 2.2s-.1.7-.5 1.3c-.1.1-.2.2-.4.3h0c-.2.1-.5.2-.8.2h-2v2.8H19s5.2.4 4.7-6.8v-.1h14.2v2.6a1.9 1.9 0 0 1-.3.9c-.4.4-.9.6-1.6.6h-3.2v2.8h7 0H47v-2.8h-3.3c-1.8-.1-1.8-1.3-1.8-1.5v-2.5-.1h15.9v.1l-1.3 2.6s-.4 1.3-1.8 1.3h-2.8v2.8h11.4v-2.8h-2-.8s-.5 0-.2-.6l.5-1.1s.2-.6.7-.6h7.2.7c.1 0 .2 0 .3.1.2.1.3.3.3.4l.5 1.3s.3.6-.5.6h-2.9v2.8h10.7 0zM40.3 12.8c-9.2 0-17.2-2.3-22.1-5.9C24.4 3.1 31.9 1 40 1c8.2 0 15.8 2.2 22.1 6-4.9 3.5-12.8 5.8-21.8 5.8z"/><path d="M70.2 13.7C62.6 17.6 52 20 40.3 20c-11.9 0-22.6-2.5-30.3-6.5 2-2.1 4.2-4 6.7-5.7 5.1 3.8 13.8 6.3 23.6 6.3 9.7 0 18.2-2.4 23.4-6.1 2.4 1.6 4.6 3.5 6.5 5.7zm8.6 20.6h-6.7L70 29.6c-.4-.8 1.2-.8 1.2-.8h3.6v-2.9H54.9v2.9h4.6s1.7-.1 1 1.2l-2 4.2H41.9v-5.5h4.3c2.1 0 1.7 3.4 1.7 3.4h3.3v-6.3H28.6v6.3h3.2s-.5-3.4 2-3.4h4.1v5.5H22.7c-1.2-1.2-2.4-1.4-5.2-1.4h-3.9c-2.1 0-2.3-.5-2.3-1.2V30c0-1.3 1.6-1.3 1.9-1.3h6.2c.5 0 .9.2 1.1.4.1.1.5.5.5 1v2h3.4v-6.3H2.6c1.3-4 3.4-7.8 6.1-11 1.1.5 2.3 1.1 3.6 1.5 7.6 3 17.1 4.7 27.4 4.7 10.5 0 20.2-1.8 27.8-4.9 1.2-.5 2.4-1 3.5-1.6 4.8 5.6 7.6 12.4 7.8 19.8zm-14-4.3c-.6 1-2.2 4.3-2.2 4.3h5.3L65.8 30s-.2-.5-.5-.5c-.2 0-.3.1-.5.5"/></g><defs><path id="B" d="M64.8 30c-.6 1-2.2 4.3-2.2 4.3h5.3L65.8 30s-.2-.5-.5-.5c-.2 0-.3.1-.5.5"/><path id="C" d="M18.7 39.8h-6.2c-.8 0-1.1-.4-1.1-.9v-2.1a1.18 1.18 0 0 1 .7-1.1c.1-.1.3-.1.5-.1h6.2s.3 0 .6.1c.5.1 1 .4 1 1v1.6c-.1.2-.1 1.5-1.7 1.5z"/></defs><clipPath id="D"><use xlink:href="#B"/></clipPath><path d="M62.5 29.5h5.3v4.7h-5.3z" clip-path="url(#D)" fill="#0054a6"/><path d="M64.8 30c-.6 1-2.2 4.3-2.2 4.3h5.3L65.7 30s-.2-.5-.5-.5c-.1 0-.3.1-.4.5" fill="#0061af"/><defs><path id="E" d="M64.8 30c-.6 1-2.2 4.3-2.2 4.3h5.3L65.7 30s-.2-.5-.5-.5c-.1 0-.3.1-.4.5"/></defs><clipPath id="F"><use xlink:href="#E"/></clipPath><path d="M62.5 29.5h5.3v4.7h-5.3z" clip-path="url(#F)" fill="#0061af"/><linearGradient id="G" gradientUnits="userSpaceOnUse" x1="40.116" y1="68.442" x2="40.116" y2="1.704"><stop offset="0" stop-color="#c4e9fb"/><stop offset=".172" stop-color="#00aeef"/><stop offset=".288" stop-color="#0061af"/></linearGradient><path d="M20.5 62.1c5.5 4 12.2 6.3 19.5 6.3 7.4 0 14.2-2.4 19.7-6.5-4.9-2.6-11.8-4.2-19.5-4.2-7.8 0-14.8 1.7-19.7 4.4z" fill="url(#G)"/><path d="M7.9 38s-.1.7-.5 1.3a1.38 1.38 0 0 1-.4.3h0c0-.2 0-.3-.1-.5 0-.2 0-.3-.1-.5 0-.3-.1-.7-.1-1v-.5-.5-1h1.2v.1V38zm0-3.7H6.6v-.6c0-.8.1-1.6.2-2.4 0-.2 0-.3.1-.5v-.1c0-.4.1-.7.2-1.1h0c.1.1.3.2.4.4.3.3.4.7.4 1.2v3.1z" fill="#0066b3"/><path d="M20.3 36.9v1.6s0 1.4-1.6 1.4h-6.2c-.8 0-1.1-.4-1.1-.9v-2.1a1.18 1.18 0 0 1 .7-1.1c.1-.1.3-.1.5-.1h6.2s.3 0 .6.1c.3.2.9.5.9 1.1z" fill="#0061af"/><linearGradient id="H" gradientUnits="userSpaceOnUse" x1="39.988" y1="41.308" x2="39.988" y2="9.255"><stop offset=".515" stop-color="#0061af"/><stop offset=".804" stop-color="#00aeef"/></linearGradient><path d="M24.5 25.9H7.9c1-3.4 2.5-6.6 4.4-9.5 7.6 2.9 17.1 4.6 27.4 4.6 11 0 19.9-1.6 27.8-4.7.1.1 0 0 0 0 .8 1.2 3 4.2 4.5 9.7H54.9v2.9h4.6s1.7-.1 1 1.2c-.4.8-1.3 2.8-2 4.2H41.9v-5.5h4.3c2.1 0 1.7 3.4 1.7 3.4h3.3v-6.3H28.6v6.3h3.2s-.5-3.4 2-3.4h4.1v5.5H22.7c-1.2-1.2-2.4-1.4-5.2-1.4h-3.9c-2.1 0-2.3-.5-2.3-1.2v-1.6c0-1.3 1.6-1.3 1.9-1.3h6.2c.5 0 .9.2 1.1.4.1.1.5.5.5 1v2h3.4v-6.3z" fill="url(#H)"/><linearGradient id="I" gradientUnits="userSpaceOnUse" x1="39.998" y1="60.822" x2="39.998" y2="28.848"><stop offset=".288" stop-color="#00aeef"/><stop offset=".515" stop-color="#0061af"/></linearGradient><path d="M66.9 42.7h5.6a32.4 32.4 0 0 1-4.8 10.9c-7.6-3-17.1-4.7-27.5-4.7-10.6 0-20.2 1.8-27.8 4.9-2.2-3.3-3.9-7.1-4.9-11.1h11.4s5.2.4 4.7-6.8v-.1h14.2v2.6a1.9 1.9 0 0 1-.3.9c-.4.4-.9.6-1.6.6h-3.2v2.8h7 0H47v-2.8h-3.3c-1.8-.1-1.8-1.3-1.8-1.5v-2.5-.1h15.9v.1l-1.3 2.6s-.4 1.3-1.8 1.3h-2.8v2.8h11.4v-2.8h-2-.8s-.5 0-.2-.6l.5-1.1s.2-.6.7-.6h7.2.7c.1 0 .2 0 .3.1.2.1.3.3.3.4l.5 1.3s.3.6-.5.6h-2.9l-.2 2.8h0z" fill="url(#I)"/><path d="M72.8 35.8h.6v.7.4h0c-.2-.3-.3-.6-.4-.8h0c-.1-.1-.1-.2-.2-.3zm-1.6-7h1.6c0 .2.1.3.1.5 0 .1 0 .3.1.4 0 .1 0 .2.1.4v.2c0 .1 0 .3.1.4 0 .1 0 .3.1.4 0 .2 0 .4.1.6v.5.3c0 .6.1 1.1.1 1.7h-1.2l-2.1-4.7c-.6-.8 1-.7 1-.7z" fill="#0066b3"/><linearGradient id="J" gradientUnits="userSpaceOnUse" x1="40.109" y1="68.479" x2="40.109" y2="1.739"><stop offset=".693" stop-color="#0061af"/><stop offset=".89" stop-color="#00aeef"/><stop offset="1" stop-color="#c4e9fb"/></linearGradient><path d="M60 8.4c-5.6-4.2-12.5-6.6-20-6.6-7.4 0-14.2 2.4-19.7 6.5 4.9 2.8 12.1 4.5 20 4.5 7.7-.1 14.8-1.7 19.7-4.4z" fill="url(#J)"/><linearGradient id="K" gradientUnits="userSpaceOnUse" x1="40.06" y1="68.499" x2="40.06" y2="1.762"><stop offset=".098" stop-color="#00aeef"/><stop offset=".515" stop-color="#0061af"/><stop offset="1" stop-color="#00aeef"/></linearGradient><path d="M66.8 15.2c-1.6-2.1-3.4-4.1-5.5-5.8-5.2 2.9-12.7 4.7-21.1 4.7-8.5 0-16.1-1.9-21.4-4.8-2.1 1.7-4 3.6-5.6 5.8C20.6 18.2 30 20 40.3 20c10 0 19.2-1.8 26.5-4.8z" fill="url(#K)"/><linearGradient id="L" gradientUnits="userSpaceOnUse" x1="40.173" y1="68.483" x2="40.173" y2="1.746"><stop offset=".098" stop-color="#00aeef"/><stop offset=".515" stop-color="#0061af"/><stop offset="1" stop-color="#00aeef"/></linearGradient><path d="M13.3 55.1c1.7 2.2 3.6 4.2 5.8 6 5.2-2.9 12.7-4.7 21.1-4.7 8.2 0 15.7 1.8 20.8 4.6a29.9 29.9 0 0 0 6-6.3c-7.2-3-16.3-4.7-26.2-4.7-10.5 0-20.1 1.9-27.5 5.1z" fill="url(#L)"/></svg>